<mxfile host="app.diagrams.net" modified="2024-07-20T15:28:05.489Z" agent="Mozilla/5.0 (Macintosh; Intel Mac OS X 10_15_7) AppleWebKit/605.1.15 (KHTML, like Gecko) Version/17.5 Safari/605.1.15" version="24.7.2" etag="npOxwJUisfCcJ4-MERdT" type="github">
  <diagram name="Page-1" id="NRne8E1cWs060M_Nhrf8">
    <mxGraphModel>
      <root>
        <mxCell id="0" />
        <mxCell id="1" parent="0" />
      </root>
    </mxGraphModel>
  </diagram>
</mxfile>
